<?xml version="1.0" encoding="UTF-8"?>
<svg version="1.1" xmlns="http://www.w3.org/2000/svg" width="500" height="500">
<path d="M0 0 C165 0 330 0 500 0 C500 165 500 330 500 500 C335 500 170 500 0 500 C0 335 0 170 0 0 Z " fill="#E3E3E3" transform="translate(0,0)"/>
<path d="M0 0 C10 0 10 0 13.328125 3.234375 C14.33628932 4.71689032 15.30845918 6.22430415 16.25 7.75 C17.35805203 9.41017019 18.46612573 11.07032592 19.57421875 12.73046875 C20.13544434 13.59849121 20.69666992 14.46651367 21.27490234 15.36083984 C24.09323435 19.67249693 27.08895577 23.85718177 30.0625 28.0625 C31.2408112 29.74784011 32.41790451 31.43403241 33.59375 33.12109375 C40.79015989 43.43445883 48.04558591 53.70076723 55.4375 63.875 C60.50459062 70.85162679 65.39984931 77.93148819 70.23901367 85.06762695 C74.25104873 90.96269942 78.40135679 96.74051291 82.66259766 102.45776367 C85.91029467 106.82058935 85.91029467 106.82058935 87 109 C87.66 109 88.32 109 89 109 C88.35932123 97.91544474 87.67976381 86.83392433 86.96829033 75.75369835 C86.68847671 71.38735664 86.41184038 67.02081309 86.13476562 62.65429688 C85.78568837 57.15310379 85.43562141 51.65198107 85.08129883 46.15112305 C84.79154359 41.65133257 84.50553306 37.15131744 84.22197151 32.65113258 C84.11447446 30.95561027 84.00565832 29.26017098 83.89541435 27.56482506 C83.29739996 18.35717965 82.87456357 9.23369514 83 0 C86.3 0 89.6 0 93 0 C93 39.6 93 79.2 93 120 C83 120 83 120 80.29296875 117.82421875 C79.59816406 116.78910156 78.90335937 115.75398438 78.1875 114.6875 C77.58675659 113.82547974 77.58675659 113.82547974 76.97387695 112.94604492 C75.61708227 110.98411312 74.31070033 108.99296998 73 107 C71.98271371 105.51059195 70.96173885 104.02369798 69.9375 102.5390625 C67.73123535 99.33582611 65.54110138 96.12233472 63.359375 92.90234375 C59.61289776 87.40120106 55.71893606 82.01304108 51.80541992 76.63012695 C48.16133336 71.61573658 44.56393578 66.57164195 41 61.5 C36.39425142 54.94837375 31.72132405 48.44869869 27.01367188 41.9699707 C24.04624895 37.87377208 21.12158773 33.7523907 18.2421875 29.59375 C17.61747559 28.69245361 16.99276367 27.79115723 16.34912109 26.86254883 C15.14692146 25.12337516 13.94908099 23.38117734 12.75634766 21.63549805 C9.78834141 17.34213101 6.84515864 13.53668509 3 10 C3.14196516 12.85440587 3.28845826 15.70846196 3.4375 18.5625 C3.47681641 19.36236328 3.51613281 20.16222656 3.55664062 20.98632812 C3.59853516 21.77587891 3.64042969 22.56542969 3.68359375 23.37890625 C3.72025146 24.0963501 3.75690918 24.81379395 3.79467773 25.55297852 C3.95143456 27.4211993 4.19508188 29.28232765 4.47705078 31.13578796 C5.02420476 35.17885547 5.33415253 39.20473755 5.57250977 43.27441406 C5.62142365 44.07041016 5.67033752 44.86640625 5.72073364 45.68652344 C5.88038175 48.29606459 6.03595949 50.90583049 6.19140625 53.515625 C6.30185468 55.33690729 6.41253014 57.15817582 6.52342224 58.97943115 C6.75457615 62.78533846 6.98386995 66.59135143 7.21166992 70.39746094 C7.50386583 75.27909146 7.7993545 80.16051533 8.09605503 85.04187393 C8.3790106 89.69972027 8.6602406 94.35767034 8.94140625 99.015625 C8.99525545 99.90500008 9.04910465 100.79437515 9.10458565 101.71070099 C9.25631117 104.22146554 9.40679833 106.73230107 9.55688477 109.24316406 C9.60206741 109.98814148 9.64725006 110.7331189 9.69380188 111.50067139 C9.86242447 114.33958367 10 117.15526949 10 120 C6.7 120 3.4 120 0 120 C0 80.4 0 40.8 0 0 Z " fill="#090909" transform="translate(269,201)"/>
<path d="M0 0 C27.39 0 54.78 0 83 0 C83 3.3 83 6.6 83 10 C75.33934957 8.99976146 67.68767917 7.96056981 60.04418945 6.83642578 C47.55817064 5.01301397 35.44213779 3.92395208 22.8125 3.875 C21.7704541 3.87024658 20.7284082 3.86549316 19.65478516 3.8605957 C18.68202637 3.862771 17.70926758 3.86494629 16.70703125 3.8671875 C15.8250708 3.86831543 14.94311035 3.86944336 14.03442383 3.87060547 C12.00501664 3.77471743 12.00501664 3.77471743 11 5 C10.90177256 6.46805292 10.8720163 7.9407746 10.87060547 9.41210938 C10.86587723 10.81861755 10.86587723 10.81861755 10.86105347 12.25354004 C10.8630777 13.27330933 10.86510193 14.29307861 10.8671875 15.34375 C10.86623077 16.38317749 10.86527405 17.42260498 10.86428833 18.49353027 C10.86360637 20.69604554 10.86546173 22.89856279 10.86962891 25.10107422 C10.87497692 28.48539719 10.86968441 31.86958744 10.86328125 35.25390625 C10.86394203 37.38802113 10.86522319 39.52213592 10.8671875 41.65625 C10.86516327 42.67601929 10.86313904 43.69578857 10.86105347 44.74645996 C10.86420563 45.68413208 10.86735779 46.6218042 10.87060547 47.58789062 C10.87140106 48.41760376 10.87219666 49.24731689 10.87301636 50.10217285 C10.79157448 52.01101524 10.79157448 52.01101524 12 53 C13.87096111 53.12344027 15.74650928 53.17792394 17.62133789 53.20532227 C18.82250748 53.22526749 20.02367706 53.24521271 21.26124573 53.26576233 C22.5685112 53.28247482 23.87577667 53.29918732 25.22265625 53.31640625 C26.56644847 53.33696958 27.91023412 53.35796588 29.25401306 53.37937927 C32.79674987 53.43466419 36.33954567 53.48404498 39.88238525 53.53222656 C43.4952115 53.58239487 47.10795172 53.63810525 50.72070312 53.69335938 C57.81372901 53.8010194 64.90683404 53.90193489 72 54 C72 57.63 72 61.26 72 65 C70.80890625 64.74605469 69.6178125 64.49210937 68.390625 64.23046875 C57.74472175 62.04133222 47.12070566 60.41088665 36.3125 59.25 C35.14428711 59.12262451 33.97607422 58.99524902 32.77246094 58.86401367 C22.89676533 57.69717879 22.89676533 57.69717879 13 58 C10.36209266 60.63790734 10.72898064 61.86849082 10.68115234 65.55126953 C10.66128265 66.71232208 10.64141296 67.87337463 10.62094116 69.0696106 C10.60361435 70.95714554 10.60361435 70.95714554 10.5859375 72.8828125 C10.56657135 74.16735321 10.5472052 75.45189392 10.5272522 76.77536011 C10.47586059 80.19147535 10.43627286 83.60763007 10.39910889 87.02392578 C10.35911303 90.50953958 10.30810822 93.99499086 10.2578125 97.48046875 C10.15992652 104.3202514 10.08047175 111.15990128 10 118 C25.84 118 41.68 118 58 118 C58 119.32 58 120.64 58 122 C23.68 122 -10.64 122 -46 122 C-46 121.01 -46 120.02 -46 119 C-30.82 119 -15.64 119 0 119 C0 79.73 0 40.46 0 0 Z " fill="#111111" transform="translate(194,136)"/>
<path d="M0 0 C34.32 0 68.64 0 104 0 C104 0.99 104 1.98 104 3 C69.68 3 35.36 3 0 3 C0 2.01 0 1.02 0 0 Z " fill="#0D0D0D" transform="translate(148,317)"/>
<path d="M0 0 C2.375 0.25 2.375 0.25 5 1 C6.3125 3.0625 6.3125 3.0625 7 5 C7.33 3.35 7.66 1.7 8 0 C8.66 0 9.32 0 10 0 C10 3.3 10 6.6 10 10 C8.68 10 7.36 10 6 10 C4.515 7.03 4.515 7.03 3 4 C3 5.98 3 7.96 3 10 C2.01 9.67 1.02 9.34 0 9 C0 6.03 0 3.06 0 0 Z " fill="#1D1D1D" transform="translate(167,290)"/>
<path d="M0 0 C0.99 0 1.98 0 3 0 C3.99 3.3 4.98 6.6 6 10 C5.01 10 4.02 10 3 10 C3 9.01 3 8.02 3 7 C1.68 7 0.36 7 -1 7 C-0.67 7.99 -0.34 8.98 0 10 C-0.99 10 -1.98 10 -3 10 C-2.01 6.7 -1.02 3.4 0 0 Z " fill="#2E2E2E" transform="translate(231,275)"/>
<path d="M0 0 C2.31 0 4.62 0 7 0 C7.68707555 2.49064888 8 4.37886292 8 7 C8.33 7.99 8.66 8.98 9 10 C8.01 10 7.02 10 6 10 C4.875 4.375 4.875 4.375 6 1 C5.01 1 4.02 1 3 1 C3.33 3.97 3.66 6.94 4 10 C2.68 9.67 1.36 9.34 0 9 C0 6.03 0 3.06 0 0 Z " fill="#141414" transform="translate(207,290)"/>
<path d="M0 0 C2.31 0 4.62 0 7 0 C6.67 0.66 6.34 1.32 6 2 C5.01 1.67 4.02 1.34 3 1 C3 1.99 3 2.98 3 4 C3.99 3.67 4.98 3.34 6 3 C5.67 3.99 5.34 4.98 5 6 C4.34 5.67 3.68 5.34 3 5 C3 6.32 3 7.64 3 9 C4.32 8.67 5.64 8.34 7 8 C7 8.66 7 9.32 7 10 C4.36 10 1.72 10 -1 10 C-0.67 6.7 -0.34 3.4 0 0 Z " fill="#232323" transform="translate(168,275)"/>
<path d="M0 0 C1.98 0 3.96 0 6 0 C5.67 0.66 5.34 1.32 5 2 C4.01 1.67 3.02 1.34 2 1 C2.845625 1.7425 3.69125 2.485 4.5625 3.25 C5.366875 4.1575 6.17125 5.065 7 6 C6.8125 8.3125 6.8125 8.3125 6 10 C4.02 10 2.04 10 0 10 C0.33 9.34 0.66 8.68 1 8 C1.99 8.33 2.98 8.66 4 9 C4 8.01 4 7.02 4 6 C2.68 5.34 1.36 4.68 0 4 C0 2.68 0 1.36 0 0 Z " fill="#222222" transform="translate(203,275)"/>
<path d="M0 0 C2.31 0 4.62 0 7 0 C6.67 0.66 6.34 1.32 6 2 C5.01 1.67 4.02 1.34 3 1 C3 1.99 3 2.98 3 4 C3.99 4 4.98 4 6 4 C5.67 4.66 5.34 5.32 5 6 C4.34 5.67 3.68 5.34 3 5 C3 6.32 3 7.64 3 9 C4.32 8.67 5.64 8.34 7 8 C7 8.66 7 9.32 7 10 C4.69 10 2.38 10 0 10 C0 6.7 0 3.4 0 0 Z " fill="#0D0D0D" transform="translate(194,290)"/>
<path d="M0 0 C2.31 0 4.62 0 7 0 C6.67 0.66 6.34 1.32 6 2 C5.01 1.67 4.02 1.34 3 1 C3 1.99 3 2.98 3 4 C3.99 3.67 4.98 3.34 6 3 C5.67 3.99 5.34 4.98 5 6 C4.34 5.67 3.68 5.34 3 5 C3 6.32 3 7.64 3 9 C3.66 9.33 4.32 9.66 5 10 C3.35 10 1.7 10 0 10 C0 6.7 0 3.4 0 0 Z " fill="#0C0C0C" transform="translate(155,275)"/>
<path d="M0 0 C0.99 0 1.98 0 3 0 C2.25 5.75 2.25 5.75 0 8 C0 5.36 0 2.72 0 0 Z " fill="#888888" transform="translate(210,291)"/>
</svg>
